# xmcd CD database file
#
# Track frame offsets:
#	187
#	12077
#	24645
#	39857
#	53182
#	68225
#	78312
#	96345
#	107072
#	121172
#	137322
#	147730
#	160152
#	176307
#	189897
#	205217
#	221762
#
# Disc length: 3280 seconds
#
# Revision: 0
# Processed by: cddbd v1.5PL3 Copyright (c) Steve Scherf et al.
# Submitted via: CDex 1.51
#
DISCID=e20cce11
DTITLE=Sadao Watanabe - TWIN BEST Disc 1
DYEAR=1998
DGENRE=Jazz
TTITLE0=THE GIRL FROM IPANEMA (Jobim/DeMoraes)
TTITLE1=MEDITATION (Jobim/Gimbel/Mendonca)
TTITLE2=BLACK ORPHEUS (L.Bonfa)
TTITLE3=O GRAND AMOUR (A.C.Jobim)
TTITLE4=COMIN' HOME BABY (B.Tucker)
TTITLE5=BONITA (Jobim/Gilbert)
TTITLE6=DINDI (Jobim/Gilbert/DeMoraes)
TTITLE7=MAS QUE NADA (J.Ben)
TTITLE8=THE SHADOW OF YOUR SMILE (Webster/Mandel)
TTITLE9=ONE NOTE SAMBA (Jobim/Mendonca)
TTITLE10=FLY ME TO THE MOON (B.Howard)
TTITLE11=A MAN AND A WOMAN (F.Lai/P.Barouh)
TTITLE12=SO DANCO SAMBA (Jobim/DeMoraes)
TTITLE13=SHE'S A CARIOCA (Gilbert/Jobim/DeMoraes)
TTITLE14=SECRET LOVE (Webster/Fain)
TTITLE15=WORK SONG (Nat Adderley)
TTITLE16=GOIN' HOME (Antonin Dvorak)
EXTD=YEAR: 1998
EXTT0=
EXTT1=
EXTT2=
EXTT3=
EXTT4=
EXTT5=
EXTT6=
EXTT7=
EXTT8=
EXTT9=
EXTT10=
EXTT11=
EXTT12=
EXTT13=
EXTT14=
EXTT15=
EXTT16=
PLAYORDER=
